# xmcd
#
# Track frame offsets: 
#        150
#        15387
#        34408
#        53036
#        66876
#        81830
#        96420
#        114467
#        130507
#        148308
#
# Disc length: 2243 seconds
#
# Revision: 0
# Processed by: cddbd v1.5.1PL0 Copyright (c) Steve Scherf et al.
# Submitted via: ExactAudioCopy v0.95b3
#
DISCID=8708c10a
DTITLE=Darja Svajger - Plameni
DYEAR=2001
DGENRE=Blues
TTITLE0=Do kdaj
TTITLE1=Zivljenje, zdaj ljubim se s teboj
TTITLE2=Poljubila bom nov dan
TTITLE3=Vedno, ko pogresam te
TTITLE4=Vem, da si
TTITLE5=Rojena v svetlobo
TTITLE6=Rada zivim
TTITLE7=Poletje v meni
TTITLE8=Se ves
TTITLE9=Plamen ljubezni
EXTD=
EXTT0=
EXTT1=
EXTT2=
EXTT3=
EXTT4=
EXTT5=
EXTT6=
EXTT7=
EXTT8=
EXTT9=
PLAYORDER=
